<?xml version="1.0" encoding="utf-8" standalone="no"?>
<!DOCTYPE svg PUBLIC "-//W3C//DTD SVG 1.1//EN"
  "http://www.w3.org/Graphics/SVG/1.1/DTD/svg11.dtd">
<svg xmlns:xlink="http://www.w3.org/1999/xlink" width="460.8pt" height="345.6pt" viewBox="0 0 460.8 345.6" xmlns="http://www.w3.org/2000/svg" version="1.1">
 <metadata>
  <rdf:RDF xmlns:dc="http://purl.org/dc/elements/1.1/" xmlns:cc="http://creativecommons.org/ns#" xmlns:rdf="http://www.w3.org/1999/02/22-rdf-syntax-ns#">
   <cc:Work>
    <dc:type rdf:resource="http://purl.org/dc/dcmitype/StillImage"/>
    <dc:date>2023-10-09T15:27:05.088858</dc:date>
    <dc:format>image/svg+xml</dc:format>
    <dc:creator>
     <cc:Agent>
      <dc:title>Matplotlib v3.8.0, https://matplotlib.org/</dc:title>
     </cc:Agent>
    </dc:creator>
   </cc:Work>
  </rdf:RDF>
 </metadata>
 <defs>
  <style type="text/css">*{stroke-linejoin: round; stroke-linecap: butt}</style>
 </defs>
 <g id="figure_1">
  <g id="patch_1">
   <path d="M 0 345.6 
L 460.8 345.6 
L 460.8 0 
L 0 0 
z
" style="fill: #ffffff"/>
  </g>
  <g id="axes_1">
   <g id="patch_2">
    <path d="M 66.008 300.04 
L 443.61 300.04 
L 443.61 10.8 
L 66.008 10.8 
z
" style="fill: #ffffff"/>
   </g>
   <g id="matplotlib.axis_1">
    <g id="xtick_1">
     <g id="line2d_1">
      <path d="M 66.008 300.04 
L 66.008 10.8 
" clip-path="url(#p9b2e56262f)" style="fill: none; stroke-dasharray: 2.96,1.28; stroke-dashoffset: 0; stroke: #b0b0b0; stroke-width: 0.8"/>
     </g>
     <g id="line2d_2">
      <defs>
       <path id="m205e76ab23" d="M 0 0 
L 0 3.5 
" style="stroke: #000000; stroke-width: 0.8"/>
      </defs>
      <g>
       <use xlink:href="#m205e76ab23" x="66.008" y="300.04" style="stroke: #000000; stroke-width: 0.8"/>
      </g>
     </g>
     <g id="text_1">
      <!-- 0.01 -->
      <g transform="translate(54.875188 314.638437) scale(0.1 -0.1)">
       <defs>
        <path id="DejaVuSans-30" d="M 2034 4250 
Q 1547 4250 1301 3770 
Q 1056 3291 1056 2328 
Q 1056 1369 1301 889 
Q 1547 409 2034 409 
Q 2525 409 2770 889 
Q 3016 1369 3016 2328 
Q 3016 3291 2770 3770 
Q 2525 4250 2034 4250 
z
M 2034 4750 
Q 2819 4750 3233 4129 
Q 3647 3509 3647 2328 
Q 3647 1150 3233 529 
Q 2819 -91 2034 -91 
Q 1250 -91 836 529 
Q 422 1150 422 2328 
Q 422 3509 836 4129 
Q 1250 4750 2034 4750 
z
" transform="scale(0.015625)"/>
        <path id="DejaVuSans-2e" d="M 684 794 
L 1344 794 
L 1344 0 
L 684 0 
L 684 794 
z
" transform="scale(0.015625)"/>
        <path id="DejaVuSans-31" d="M 794 531 
L 1825 531 
L 1825 4091 
L 703 3866 
L 703 4441 
L 1819 4666 
L 2450 4666 
L 2450 531 
L 3481 531 
L 3481 0 
L 794 0 
L 794 531 
z
" transform="scale(0.015625)"/>
       </defs>
       <use xlink:href="#DejaVuSans-30"/>
       <use xlink:href="#DejaVuSans-2e" x="63.623047"/>
       <use xlink:href="#DejaVuSans-30" x="95.410156"/>
       <use xlink:href="#DejaVuSans-31" x="159.033203"/>
      </g>
     </g>
    </g>
    <g id="xtick_2">
     <g id="line2d_3">
      <path d="M 191.875333 300.04 
L 191.875333 10.8 
" clip-path="url(#p9b2e56262f)" style="fill: none; stroke-dasharray: 2.96,1.28; stroke-dashoffset: 0; stroke: #b0b0b0; stroke-width: 0.8"/>
     </g>
     <g id="line2d_4">
      <g>
       <use xlink:href="#m205e76ab23" x="191.875333" y="300.04" style="stroke: #000000; stroke-width: 0.8"/>
      </g>
     </g>
     <g id="text_2">
      <!-- 0.1 -->
      <g transform="translate(183.923771 314.638437) scale(0.1 -0.1)">
       <use xlink:href="#DejaVuSans-30"/>
       <use xlink:href="#DejaVuSans-2e" x="63.623047"/>
       <use xlink:href="#DejaVuSans-31" x="95.410156"/>
      </g>
     </g>
    </g>
    <g id="xtick_3">
     <g id="line2d_5">
      <path d="M 317.742667 300.04 
L 317.742667 10.8 
" clip-path="url(#p9b2e56262f)" style="fill: none; stroke-dasharray: 2.96,1.28; stroke-dashoffset: 0; stroke: #b0b0b0; stroke-width: 0.8"/>
     </g>
     <g id="line2d_6">
      <g>
       <use xlink:href="#m205e76ab23" x="317.742667" y="300.04" style="stroke: #000000; stroke-width: 0.8"/>
      </g>
     </g>
     <g id="text_3">
      <!-- 1 -->
      <g transform="translate(314.561417 314.638437) scale(0.1 -0.1)">
       <use xlink:href="#DejaVuSans-31"/>
      </g>
     </g>
    </g>
    <g id="xtick_4">
     <g id="line2d_7">
      <path d="M 443.61 300.04 
L 443.61 10.8 
" clip-path="url(#p9b2e56262f)" style="fill: none; stroke-dasharray: 2.96,1.28; stroke-dashoffset: 0; stroke: #b0b0b0; stroke-width: 0.8"/>
     </g>
     <g id="line2d_8">
      <g>
       <use xlink:href="#m205e76ab23" x="443.61" y="300.04" style="stroke: #000000; stroke-width: 0.8"/>
      </g>
     </g>
     <g id="text_4">
      <!-- 10 -->
      <g transform="translate(437.2475 314.638437) scale(0.1 -0.1)">
       <use xlink:href="#DejaVuSans-31"/>
       <use xlink:href="#DejaVuSans-30" x="63.623047"/>
      </g>
     </g>
    </g>
    <g id="xtick_5">
     <g id="line2d_9">
      <path d="M 103.897843 300.04 
L 103.897843 10.8 
" clip-path="url(#p9b2e56262f)" style="fill: none; stroke-dasharray: 0.8,1.32; stroke-dashoffset: 0; stroke: #b0b0b0; stroke-width: 0.8"/>
     </g>
     <g id="line2d_10">
      <defs>
       <path id="mb101627647" d="M 0 0 
L 0 2 
" style="stroke: #000000; stroke-width: 0.6"/>
      </defs>
      <g>
       <use xlink:href="#mb101627647" x="103.897843" y="300.04" style="stroke: #000000; stroke-width: 0.6"/>
      </g>
     </g>
    </g>
    <g id="xtick_6">
     <g id="line2d_11">
      <path d="M 126.06198 300.04 
L 126.06198 10.8 
" clip-path="url(#p9b2e56262f)" style="fill: none; stroke-dasharray: 0.8,1.32; stroke-dashoffset: 0; stroke: #b0b0b0; stroke-width: 0.8"/>
     </g>
     <g id="line2d_12">
      <g>
       <use xlink:href="#mb101627647" x="126.06198" y="300.04" style="stroke: #000000; stroke-width: 0.6"/>
      </g>
     </g>
    </g>
    <g id="xtick_7">
     <g id="line2d_13">
      <path d="M 141.787686 300.04 
L 141.787686 10.8 
" clip-path="url(#p9b2e56262f)" style="fill: none; stroke-dasharray: 0.8,1.32; stroke-dashoffset: 0; stroke: #b0b0b0; stroke-width: 0.8"/>
     </g>
     <g id="line2d_14">
      <g>
       <use xlink:href="#mb101627647" x="141.787686" y="300.04" style="stroke: #000000; stroke-width: 0.6"/>
      </g>
     </g>
    </g>
    <g id="xtick_8">
     <g id="line2d_15">
      <path d="M 153.985491 300.04 
L 153.985491 10.8 
" clip-path="url(#p9b2e56262f)" style="fill: none; stroke-dasharray: 0.8,1.32; stroke-dashoffset: 0; stroke: #b0b0b0; stroke-width: 0.8"/>
     </g>
     <g id="line2d_16">
      <g>
       <use xlink:href="#mb101627647" x="153.985491" y="300.04" style="stroke: #000000; stroke-width: 0.6"/>
      </g>
     </g>
    </g>
    <g id="xtick_9">
     <g id="line2d_17">
      <path d="M 163.951823 300.04 
L 163.951823 10.8 
" clip-path="url(#p9b2e56262f)" style="fill: none; stroke-dasharray: 0.8,1.32; stroke-dashoffset: 0; stroke: #b0b0b0; stroke-width: 0.8"/>
     </g>
     <g id="line2d_18">
      <g>
       <use xlink:href="#mb101627647" x="163.951823" y="300.04" style="stroke: #000000; stroke-width: 0.6"/>
      </g>
     </g>
    </g>
    <g id="xtick_10">
     <g id="line2d_19">
      <path d="M 172.378237 300.04 
L 172.378237 10.8 
" clip-path="url(#p9b2e56262f)" style="fill: none; stroke-dasharray: 0.8,1.32; stroke-dashoffset: 0; stroke: #b0b0b0; stroke-width: 0.8"/>
     </g>
     <g id="line2d_20">
      <g>
       <use xlink:href="#mb101627647" x="172.378237" y="300.04" style="stroke: #000000; stroke-width: 0.6"/>
      </g>
     </g>
    </g>
    <g id="xtick_11">
     <g id="line2d_21">
      <path d="M 179.677528 300.04 
L 179.677528 10.8 
" clip-path="url(#p9b2e56262f)" style="fill: none; stroke-dasharray: 0.8,1.32; stroke-dashoffset: 0; stroke: #b0b0b0; stroke-width: 0.8"/>
     </g>
     <g id="line2d_22">
      <g>
       <use xlink:href="#mb101627647" x="179.677528" y="300.04" style="stroke: #000000; stroke-width: 0.6"/>
      </g>
     </g>
    </g>
    <g id="xtick_12">
     <g id="line2d_23">
      <path d="M 186.11596 300.04 
L 186.11596 10.8 
" clip-path="url(#p9b2e56262f)" style="fill: none; stroke-dasharray: 0.8,1.32; stroke-dashoffset: 0; stroke: #b0b0b0; stroke-width: 0.8"/>
     </g>
     <g id="line2d_24">
      <g>
       <use xlink:href="#mb101627647" x="186.11596" y="300.04" style="stroke: #000000; stroke-width: 0.6"/>
      </g>
     </g>
    </g>
    <g id="xtick_13">
     <g id="line2d_25">
      <path d="M 229.765176 300.04 
L 229.765176 10.8 
" clip-path="url(#p9b2e56262f)" style="fill: none; stroke-dasharray: 0.8,1.32; stroke-dashoffset: 0; stroke: #b0b0b0; stroke-width: 0.8"/>
     </g>
     <g id="line2d_26">
      <g>
       <use xlink:href="#mb101627647" x="229.765176" y="300.04" style="stroke: #000000; stroke-width: 0.6"/>
      </g>
     </g>
    </g>
    <g id="xtick_14">
     <g id="line2d_27">
      <path d="M 251.929313 300.04 
L 251.929313 10.8 
" clip-path="url(#p9b2e56262f)" style="fill: none; stroke-dasharray: 0.8,1.32; stroke-dashoffset: 0; stroke: #b0b0b0; stroke-width: 0.8"/>
     </g>
     <g id="line2d_28">
      <g>
       <use xlink:href="#mb101627647" x="251.929313" y="300.04" style="stroke: #000000; stroke-width: 0.6"/>
      </g>
     </g>
    </g>
    <g id="xtick_15">
     <g id="line2d_29">
      <path d="M 267.655019 300.04 
L 267.655019 10.8 
" clip-path="url(#p9b2e56262f)" style="fill: none; stroke-dasharray: 0.8,1.32; stroke-dashoffset: 0; stroke: #b0b0b0; stroke-width: 0.8"/>
     </g>
     <g id="line2d_30">
      <g>
       <use xlink:href="#mb101627647" x="267.655019" y="300.04" style="stroke: #000000; stroke-width: 0.6"/>
      </g>
     </g>
    </g>
    <g id="xtick_16">
     <g id="line2d_31">
      <path d="M 279.852824 300.04 
L 279.852824 10.8 
" clip-path="url(#p9b2e56262f)" style="fill: none; stroke-dasharray: 0.8,1.32; stroke-dashoffset: 0; stroke: #b0b0b0; stroke-width: 0.8"/>
     </g>
     <g id="line2d_32">
      <g>
       <use xlink:href="#mb101627647" x="279.852824" y="300.04" style="stroke: #000000; stroke-width: 0.6"/>
      </g>
     </g>
    </g>
    <g id="xtick_17">
     <g id="line2d_33">
      <path d="M 289.819156 300.04 
L 289.819156 10.8 
" clip-path="url(#p9b2e56262f)" style="fill: none; stroke-dasharray: 0.8,1.32; stroke-dashoffset: 0; stroke: #b0b0b0; stroke-width: 0.8"/>
     </g>
     <g id="line2d_34">
      <g>
       <use xlink:href="#mb101627647" x="289.819156" y="300.04" style="stroke: #000000; stroke-width: 0.6"/>
      </g>
     </g>
    </g>
    <g id="xtick_18">
     <g id="line2d_35">
      <path d="M 298.24557 300.04 
L 298.24557 10.8 
" clip-path="url(#p9b2e56262f)" style="fill: none; stroke-dasharray: 0.8,1.32; stroke-dashoffset: 0; stroke: #b0b0b0; stroke-width: 0.8"/>
     </g>
     <g id="line2d_36">
      <g>
       <use xlink:href="#mb101627647" x="298.24557" y="300.04" style="stroke: #000000; stroke-width: 0.6"/>
      </g>
     </g>
    </g>
    <g id="xtick_19">
     <g id="line2d_37">
      <path d="M 305.544862 300.04 
L 305.544862 10.8 
" clip-path="url(#p9b2e56262f)" style="fill: none; stroke-dasharray: 0.8,1.32; stroke-dashoffset: 0; stroke: #b0b0b0; stroke-width: 0.8"/>
     </g>
     <g id="line2d_38">
      <g>
       <use xlink:href="#mb101627647" x="305.544862" y="300.04" style="stroke: #000000; stroke-width: 0.6"/>
      </g>
     </g>
    </g>
    <g id="xtick_20">
     <g id="line2d_39">
      <path d="M 311.983293 300.04 
L 311.983293 10.8 
" clip-path="url(#p9b2e56262f)" style="fill: none; stroke-dasharray: 0.8,1.32; stroke-dashoffset: 0; stroke: #b0b0b0; stroke-width: 0.8"/>
     </g>
     <g id="line2d_40">
      <g>
       <use xlink:href="#mb101627647" x="311.983293" y="300.04" style="stroke: #000000; stroke-width: 0.6"/>
      </g>
     </g>
    </g>
    <g id="xtick_21">
     <g id="line2d_41">
      <path d="M 355.632509 300.04 
L 355.632509 10.8 
" clip-path="url(#p9b2e56262f)" style="fill: none; stroke-dasharray: 0.8,1.32; stroke-dashoffset: 0; stroke: #b0b0b0; stroke-width: 0.8"/>
     </g>
     <g id="line2d_42">
      <g>
       <use xlink:href="#mb101627647" x="355.632509" y="300.04" style="stroke: #000000; stroke-width: 0.6"/>
      </g>
     </g>
    </g>
    <g id="xtick_22">
     <g id="line2d_43">
      <path d="M 377.796647 300.04 
L 377.796647 10.8 
" clip-path="url(#p9b2e56262f)" style="fill: none; stroke-dasharray: 0.8,1.32; stroke-dashoffset: 0; stroke: #b0b0b0; stroke-width: 0.8"/>
     </g>
     <g id="line2d_44">
      <g>
       <use xlink:href="#mb101627647" x="377.796647" y="300.04" style="stroke: #000000; stroke-width: 0.6"/>
      </g>
     </g>
    </g>
    <g id="xtick_23">
     <g id="line2d_45">
      <path d="M 393.522352 300.04 
L 393.522352 10.8 
" clip-path="url(#p9b2e56262f)" style="fill: none; stroke-dasharray: 0.8,1.32; stroke-dashoffset: 0; stroke: #b0b0b0; stroke-width: 0.8"/>
     </g>
     <g id="line2d_46">
      <g>
       <use xlink:href="#mb101627647" x="393.522352" y="300.04" style="stroke: #000000; stroke-width: 0.6"/>
      </g>
     </g>
    </g>
    <g id="xtick_24">
     <g id="line2d_47">
      <path d="M 405.720157 300.04 
L 405.720157 10.8 
" clip-path="url(#p9b2e56262f)" style="fill: none; stroke-dasharray: 0.8,1.32; stroke-dashoffset: 0; stroke: #b0b0b0; stroke-width: 0.8"/>
     </g>
     <g id="line2d_48">
      <g>
       <use xlink:href="#mb101627647" x="405.720157" y="300.04" style="stroke: #000000; stroke-width: 0.6"/>
      </g>
     </g>
    </g>
    <g id="xtick_25">
     <g id="line2d_49">
      <path d="M 415.686489 300.04 
L 415.686489 10.8 
" clip-path="url(#p9b2e56262f)" style="fill: none; stroke-dasharray: 0.8,1.32; stroke-dashoffset: 0; stroke: #b0b0b0; stroke-width: 0.8"/>
     </g>
     <g id="line2d_50">
      <g>
       <use xlink:href="#mb101627647" x="415.686489" y="300.04" style="stroke: #000000; stroke-width: 0.6"/>
      </g>
     </g>
    </g>
    <g id="xtick_26">
     <g id="line2d_51">
      <path d="M 424.112903 300.04 
L 424.112903 10.8 
" clip-path="url(#p9b2e56262f)" style="fill: none; stroke-dasharray: 0.8,1.32; stroke-dashoffset: 0; stroke: #b0b0b0; stroke-width: 0.8"/>
     </g>
     <g id="line2d_52">
      <g>
       <use xlink:href="#mb101627647" x="424.112903" y="300.04" style="stroke: #000000; stroke-width: 0.6"/>
      </g>
     </g>
    </g>
    <g id="xtick_27">
     <g id="line2d_53">
      <path d="M 431.412195 300.04 
L 431.412195 10.8 
" clip-path="url(#p9b2e56262f)" style="fill: none; stroke-dasharray: 0.8,1.32; stroke-dashoffset: 0; stroke: #b0b0b0; stroke-width: 0.8"/>
     </g>
     <g id="line2d_54">
      <g>
       <use xlink:href="#mb101627647" x="431.412195" y="300.04" style="stroke: #000000; stroke-width: 0.6"/>
      </g>
     </g>
    </g>
    <g id="xtick_28">
     <g id="line2d_55">
      <path d="M 437.850627 300.04 
L 437.850627 10.8 
" clip-path="url(#p9b2e56262f)" style="fill: none; stroke-dasharray: 0.8,1.32; stroke-dashoffset: 0; stroke: #b0b0b0; stroke-width: 0.8"/>
     </g>
     <g id="line2d_56">
      <g>
       <use xlink:href="#mb101627647" x="437.850627" y="300.04" style="stroke: #000000; stroke-width: 0.6"/>
      </g>
     </g>
    </g>
    <g id="text_5">
     <!-- Vibration Period (s) -->
     <g transform="translate(187.832125 331.355937) scale(0.14 -0.14)">
      <defs>
       <path id="DejaVuSans-56" d="M 1831 0 
L 50 4666 
L 709 4666 
L 2188 738 
L 3669 4666 
L 4325 4666 
L 2547 0 
L 1831 0 
z
" transform="scale(0.015625)"/>
       <path id="DejaVuSans-69" d="M 603 3500 
L 1178 3500 
L 1178 0 
L 603 0 
L 603 3500 
z
M 603 4863 
L 1178 4863 
L 1178 4134 
L 603 4134 
L 603 4863 
z
" transform="scale(0.015625)"/>
       <path id="DejaVuSans-62" d="M 3116 1747 
Q 3116 2381 2855 2742 
Q 2594 3103 2138 3103 
Q 1681 3103 1420 2742 
Q 1159 2381 1159 1747 
Q 1159 1113 1420 752 
Q 1681 391 2138 391 
Q 2594 391 2855 752 
Q 3116 1113 3116 1747 
z
M 1159 2969 
Q 1341 3281 1617 3432 
Q 1894 3584 2278 3584 
Q 2916 3584 3314 3078 
Q 3713 2572 3713 1747 
Q 3713 922 3314 415 
Q 2916 -91 2278 -91 
Q 1894 -91 1617 61 
Q 1341 213 1159 525 
L 1159 0 
L 581 0 
L 581 4863 
L 1159 4863 
L 1159 2969 
z
" transform="scale(0.015625)"/>
       <path id="DejaVuSans-72" d="M 2631 2963 
Q 2534 3019 2420 3045 
Q 2306 3072 2169 3072 
Q 1681 3072 1420 2755 
Q 1159 2438 1159 1844 
L 1159 0 
L 581 0 
L 581 3500 
L 1159 3500 
L 1159 2956 
Q 1341 3275 1631 3429 
Q 1922 3584 2338 3584 
Q 2397 3584 2469 3576 
Q 2541 3569 2628 3553 
L 2631 2963 
z
" transform="scale(0.015625)"/>
       <path id="DejaVuSans-61" d="M 2194 1759 
Q 1497 1759 1228 1600 
Q 959 1441 959 1056 
Q 959 750 1161 570 
Q 1363 391 1709 391 
Q 2188 391 2477 730 
Q 2766 1069 2766 1631 
L 2766 1759 
L 2194 1759 
z
M 3341 1997 
L 3341 0 
L 2766 0 
L 2766 531 
Q 2569 213 2275 61 
Q 1981 -91 1556 -91 
Q 1019 -91 701 211 
Q 384 513 384 1019 
Q 384 1609 779 1909 
Q 1175 2209 1959 2209 
L 2766 2209 
L 2766 2266 
Q 2766 2663 2505 2880 
Q 2244 3097 1772 3097 
Q 1472 3097 1187 3025 
Q 903 2953 641 2809 
L 641 3341 
Q 956 3463 1253 3523 
Q 1550 3584 1831 3584 
Q 2591 3584 2966 3190 
Q 3341 2797 3341 1997 
z
" transform="scale(0.015625)"/>
       <path id="DejaVuSans-74" d="M 1172 4494 
L 1172 3500 
L 2356 3500 
L 2356 3053 
L 1172 3053 
L 1172 1153 
Q 1172 725 1289 603 
Q 1406 481 1766 481 
L 2356 481 
L 2356 0 
L 1766 0 
Q 1100 0 847 248 
Q 594 497 594 1153 
L 594 3053 
L 172 3053 
L 172 3500 
L 594 3500 
L 594 4494 
L 1172 4494 
z
" transform="scale(0.015625)"/>
       <path id="DejaVuSans-6f" d="M 1959 3097 
Q 1497 3097 1228 2736 
Q 959 2375 959 1747 
Q 959 1119 1226 758 
Q 1494 397 1959 397 
Q 2419 397 2687 759 
Q 2956 1122 2956 1747 
Q 2956 2369 2687 2733 
Q 2419 3097 1959 3097 
z
M 1959 3584 
Q 2709 3584 3137 3096 
Q 3566 2609 3566 1747 
Q 3566 888 3137 398 
Q 2709 -91 1959 -91 
Q 1206 -91 779 398 
Q 353 888 353 1747 
Q 353 2609 779 3096 
Q 1206 3584 1959 3584 
z
" transform="scale(0.015625)"/>
       <path id="DejaVuSans-6e" d="M 3513 2113 
L 3513 0 
L 2938 0 
L 2938 2094 
Q 2938 2591 2744 2837 
Q 2550 3084 2163 3084 
Q 1697 3084 1428 2787 
Q 1159 2491 1159 1978 
L 1159 0 
L 581 0 
L 581 3500 
L 1159 3500 
L 1159 2956 
Q 1366 3272 1645 3428 
Q 1925 3584 2291 3584 
Q 2894 3584 3203 3211 
Q 3513 2838 3513 2113 
z
" transform="scale(0.015625)"/>
       <path id="DejaVuSans-20" transform="scale(0.015625)"/>
       <path id="DejaVuSans-50" d="M 1259 4147 
L 1259 2394 
L 2053 2394 
Q 2494 2394 2734 2622 
Q 2975 2850 2975 3272 
Q 2975 3691 2734 3919 
Q 2494 4147 2053 4147 
L 1259 4147 
z
M 628 4666 
L 2053 4666 
Q 2838 4666 3239 4311 
Q 3641 3956 3641 3272 
Q 3641 2581 3239 2228 
Q 2838 1875 2053 1875 
L 1259 1875 
L 1259 0 
L 628 0 
L 628 4666 
z
" transform="scale(0.015625)"/>
       <path id="DejaVuSans-65" d="M 3597 1894 
L 3597 1613 
L 953 1613 
Q 991 1019 1311 708 
Q 1631 397 2203 397 
Q 2534 397 2845 478 
Q 3156 559 3463 722 
L 3463 178 
Q 3153 47 2828 -22 
Q 2503 -91 2169 -91 
Q 1331 -91 842 396 
Q 353 884 353 1716 
Q 353 2575 817 3079 
Q 1281 3584 2069 3584 
Q 2775 3584 3186 3129 
Q 3597 2675 3597 1894 
z
M 3022 2063 
Q 3016 2534 2758 2815 
Q 2500 3097 2075 3097 
Q 1594 3097 1305 2825 
Q 1016 2553 972 2059 
L 3022 2063 
z
" transform="scale(0.015625)"/>
       <path id="DejaVuSans-64" d="M 2906 2969 
L 2906 4863 
L 3481 4863 
L 3481 0 
L 2906 0 
L 2906 525 
Q 2725 213 2448 61 
Q 2172 -91 1784 -91 
Q 1150 -91 751 415 
Q 353 922 353 1747 
Q 353 2572 751 3078 
Q 1150 3584 1784 3584 
Q 2172 3584 2448 3432 
Q 2725 3281 2906 2969 
z
M 947 1747 
Q 947 1113 1208 752 
Q 1469 391 1925 391 
Q 2381 391 2643 752 
Q 2906 1113 2906 1747 
Q 2906 2381 2643 2742 
Q 2381 3103 1925 3103 
Q 1469 3103 1208 2742 
Q 947 2381 947 1747 
z
" transform="scale(0.015625)"/>
       <path id="DejaVuSans-28" d="M 1984 4856 
Q 1566 4138 1362 3434 
Q 1159 2731 1159 2009 
Q 1159 1288 1364 580 
Q 1569 -128 1984 -844 
L 1484 -844 
Q 1016 -109 783 600 
Q 550 1309 550 2009 
Q 550 2706 781 3412 
Q 1013 4119 1484 4856 
L 1984 4856 
z
" transform="scale(0.015625)"/>
       <path id="DejaVuSans-73" d="M 2834 3397 
L 2834 2853 
Q 2591 2978 2328 3040 
Q 2066 3103 1784 3103 
Q 1356 3103 1142 2972 
Q 928 2841 928 2578 
Q 928 2378 1081 2264 
Q 1234 2150 1697 2047 
L 1894 2003 
Q 2506 1872 2764 1633 
Q 3022 1394 3022 966 
Q 3022 478 2636 193 
Q 2250 -91 1575 -91 
Q 1294 -91 989 -36 
Q 684 19 347 128 
L 347 722 
Q 666 556 975 473 
Q 1284 391 1588 391 
Q 1994 391 2212 530 
Q 2431 669 2431 922 
Q 2431 1156 2273 1281 
Q 2116 1406 1581 1522 
L 1381 1569 
Q 847 1681 609 1914 
Q 372 2147 372 2553 
Q 372 3047 722 3315 
Q 1072 3584 1716 3584 
Q 2034 3584 2315 3537 
Q 2597 3491 2834 3397 
z
" transform="scale(0.015625)"/>
       <path id="DejaVuSans-29" d="M 513 4856 
L 1013 4856 
Q 1481 4119 1714 3412 
Q 1947 2706 1947 2009 
Q 1947 1309 1714 600 
Q 1481 -109 1013 -844 
L 513 -844 
Q 928 -128 1133 580 
Q 1338 1288 1338 2009 
Q 1338 2731 1133 3434 
Q 928 4138 513 4856 
z
" transform="scale(0.015625)"/>
      </defs>
      <use xlink:href="#DejaVuSans-56"/>
      <use xlink:href="#DejaVuSans-69" x="66.158203"/>
      <use xlink:href="#DejaVuSans-62" x="93.941406"/>
      <use xlink:href="#DejaVuSans-72" x="157.417969"/>
      <use xlink:href="#DejaVuSans-61" x="198.53125"/>
      <use xlink:href="#DejaVuSans-74" x="259.810547"/>
      <use xlink:href="#DejaVuSans-69" x="299.019531"/>
      <use xlink:href="#DejaVuSans-6f" x="326.802734"/>
      <use xlink:href="#DejaVuSans-6e" x="387.984375"/>
      <use xlink:href="#DejaVuSans-20" x="451.363281"/>
      <use xlink:href="#DejaVuSans-50" x="483.150391"/>
      <use xlink:href="#DejaVuSans-65" x="539.828125"/>
      <use xlink:href="#DejaVuSans-72" x="601.351562"/>
      <use xlink:href="#DejaVuSans-69" x="642.464844"/>
      <use xlink:href="#DejaVuSans-6f" x="670.248047"/>
      <use xlink:href="#DejaVuSans-64" x="731.429688"/>
      <use xlink:href="#DejaVuSans-20" x="794.90625"/>
      <use xlink:href="#DejaVuSans-28" x="826.693359"/>
      <use xlink:href="#DejaVuSans-73" x="865.707031"/>
      <use xlink:href="#DejaVuSans-29" x="917.806641"/>
     </g>
    </g>
   </g>
   <g id="matplotlib.axis_2">
    <g id="ytick_1">
     <g id="line2d_57">
      <path d="M 66.008 241.162007 
L 443.61 241.162007 
" clip-path="url(#p9b2e56262f)" style="fill: none; stroke-dasharray: 2.96,1.28; stroke-dashoffset: 0; stroke: #b0b0b0; stroke-width: 0.8"/>
     </g>
     <g id="line2d_58">
      <defs>
       <path id="m8cb7744312" d="M 0 0 
L -3.5 0 
" style="stroke: #000000; stroke-width: 0.8"/>
      </defs>
      <g>
       <use xlink:href="#m8cb7744312" x="66.008" y="241.162007" style="stroke: #000000; stroke-width: 0.8"/>
      </g>
     </g>
     <g id="text_6">
      <!-- 10 -->
      <g transform="translate(46.283 244.961225) scale(0.1 -0.1)">
       <use xlink:href="#DejaVuSans-31"/>
       <use xlink:href="#DejaVuSans-30" x="63.623047"/>
      </g>
     </g>
    </g>
    <g id="ytick_2">
     <g id="line2d_59">
      <path d="M 66.008 150.88895 
L 443.61 150.88895 
" clip-path="url(#p9b2e56262f)" style="fill: none; stroke-dasharray: 2.96,1.28; stroke-dashoffset: 0; stroke: #b0b0b0; stroke-width: 0.8"/>
     </g>
     <g id="line2d_60">
      <g>
       <use xlink:href="#m8cb7744312" x="66.008" y="150.88895" style="stroke: #000000; stroke-width: 0.8"/>
      </g>
     </g>
     <g id="text_7">
      <!-- 100 -->
      <g transform="translate(39.9205 154.688169) scale(0.1 -0.1)">
       <use xlink:href="#DejaVuSans-31"/>
       <use xlink:href="#DejaVuSans-30" x="63.623047"/>
       <use xlink:href="#DejaVuSans-30" x="127.246094"/>
      </g>
     </g>
    </g>
    <g id="ytick_3">
     <g id="line2d_61">
      <path d="M 66.008 60.615894 
L 443.61 60.615894 
" clip-path="url(#p9b2e56262f)" style="fill: none; stroke-dasharray: 2.96,1.28; stroke-dashoffset: 0; stroke: #b0b0b0; stroke-width: 0.8"/>
     </g>
     <g id="line2d_62">
      <g>
       <use xlink:href="#m8cb7744312" x="66.008" y="60.615894" style="stroke: #000000; stroke-width: 0.8"/>
      </g>
     </g>
     <g id="text_8">
      <!-- 1000 -->
      <g transform="translate(33.558 64.415113) scale(0.1 -0.1)">
       <use xlink:href="#DejaVuSans-31"/>
       <use xlink:href="#DejaVuSans-30" x="63.623047"/>
       <use xlink:href="#DejaVuSans-30" x="127.246094"/>
       <use xlink:href="#DejaVuSans-30" x="190.869141"/>
      </g>
     </g>
    </g>
    <g id="ytick_4">
     <g id="line2d_63">
      <path d="M 66.008 288.363869 
L 443.61 288.363869 
" clip-path="url(#p9b2e56262f)" style="fill: none; stroke-dasharray: 0.8,1.32; stroke-dashoffset: 0; stroke: #b0b0b0; stroke-width: 0.8"/>
     </g>
     <g id="line2d_64">
      <defs>
       <path id="mf333750dea" d="M 0 0 
L -2 0 
" style="stroke: #000000; stroke-width: 0.6"/>
      </defs>
      <g>
       <use xlink:href="#mf333750dea" x="66.008" y="288.363869" style="stroke: #000000; stroke-width: 0.6"/>
      </g>
     </g>
    </g>
    <g id="ytick_5">
     <g id="line2d_65">
      <path d="M 66.008 277.085267 
L 443.61 277.085267 
" clip-path="url(#p9b2e56262f)" style="fill: none; stroke-dasharray: 0.8,1.32; stroke-dashoffset: 0; stroke: #b0b0b0; stroke-width: 0.8"/>
     </g>
     <g id="line2d_66">
      <g>
       <use xlink:href="#mf333750dea" x="66.008" y="277.085267" style="stroke: #000000; stroke-width: 0.6"/>
      </g>
     </g>
    </g>
    <g id="ytick_6">
     <g id="line2d_67">
      <path d="M 66.008 268.336904 
L 443.61 268.336904 
" clip-path="url(#p9b2e56262f)" style="fill: none; stroke-dasharray: 0.8,1.32; stroke-dashoffset: 0; stroke: #b0b0b0; stroke-width: 0.8"/>
     </g>
     <g id="line2d_68">
      <g>
       <use xlink:href="#mf333750dea" x="66.008" y="268.336904" style="stroke: #000000; stroke-width: 0.6"/>
      </g>
     </g>
    </g>
    <g id="ytick_7">
     <g id="line2d_69">
      <path d="M 66.008 261.188971 
L 443.61 261.188971 
" clip-path="url(#p9b2e56262f)" style="fill: none; stroke-dasharray: 0.8,1.32; stroke-dashoffset: 0; stroke: #b0b0b0; stroke-width: 0.8"/>
     </g>
     <g id="line2d_70">
      <g>
       <use xlink:href="#mf333750dea" x="66.008" y="261.188971" style="stroke: #000000; stroke-width: 0.6"/>
      </g>
     </g>
    </g>
    <g id="ytick_8">
     <g id="line2d_71">
      <path d="M 66.008 255.14548 
L 443.61 255.14548 
" clip-path="url(#p9b2e56262f)" style="fill: none; stroke-dasharray: 0.8,1.32; stroke-dashoffset: 0; stroke: #b0b0b0; stroke-width: 0.8"/>
     </g>
     <g id="line2d_72">
      <g>
       <use xlink:href="#mf333750dea" x="66.008" y="255.14548" style="stroke: #000000; stroke-width: 0.6"/>
      </g>
     </g>
    </g>
    <g id="ytick_9">
     <g id="line2d_73">
      <path d="M 66.008 249.91037 
L 443.61 249.91037 
" clip-path="url(#p9b2e56262f)" style="fill: none; stroke-dasharray: 0.8,1.32; stroke-dashoffset: 0; stroke: #b0b0b0; stroke-width: 0.8"/>
     </g>
     <g id="line2d_74">
      <g>
       <use xlink:href="#mf333750dea" x="66.008" y="249.91037" style="stroke: #000000; stroke-width: 0.6"/>
      </g>
     </g>
    </g>
    <g id="ytick_10">
     <g id="line2d_75">
      <path d="M 66.008 245.292675 
L 443.61 245.292675 
" clip-path="url(#p9b2e56262f)" style="fill: none; stroke-dasharray: 0.8,1.32; stroke-dashoffset: 0; stroke: #b0b0b0; stroke-width: 0.8"/>
     </g>
     <g id="line2d_76">
      <g>
       <use xlink:href="#mf333750dea" x="66.008" y="245.292675" style="stroke: #000000; stroke-width: 0.6"/>
      </g>
     </g>
    </g>
    <g id="ytick_11">
     <g id="line2d_77">
      <path d="M 66.008 213.987109 
L 443.61 213.987109 
" clip-path="url(#p9b2e56262f)" style="fill: none; stroke-dasharray: 0.8,1.32; stroke-dashoffset: 0; stroke: #b0b0b0; stroke-width: 0.8"/>
     </g>
     <g id="line2d_78">
      <g>
       <use xlink:href="#mf333750dea" x="66.008" y="213.987109" style="stroke: #000000; stroke-width: 0.6"/>
      </g>
     </g>
    </g>
    <g id="ytick_12">
     <g id="line2d_79">
      <path d="M 66.008 198.090813 
L 443.61 198.090813 
" clip-path="url(#p9b2e56262f)" style="fill: none; stroke-dasharray: 0.8,1.32; stroke-dashoffset: 0; stroke: #b0b0b0; stroke-width: 0.8"/>
     </g>
     <g id="line2d_80">
      <g>
       <use xlink:href="#mf333750dea" x="66.008" y="198.090813" style="stroke: #000000; stroke-width: 0.6"/>
      </g>
     </g>
    </g>
    <g id="ytick_13">
     <g id="line2d_81">
      <path d="M 66.008 186.812211 
L 443.61 186.812211 
" clip-path="url(#p9b2e56262f)" style="fill: none; stroke-dasharray: 0.8,1.32; stroke-dashoffset: 0; stroke: #b0b0b0; stroke-width: 0.8"/>
     </g>
     <g id="line2d_82">
      <g>
       <use xlink:href="#mf333750dea" x="66.008" y="186.812211" style="stroke: #000000; stroke-width: 0.6"/>
      </g>
     </g>
    </g>
    <g id="ytick_14">
     <g id="line2d_83">
      <path d="M 66.008 178.063848 
L 443.61 178.063848 
" clip-path="url(#p9b2e56262f)" style="fill: none; stroke-dasharray: 0.8,1.32; stroke-dashoffset: 0; stroke: #b0b0b0; stroke-width: 0.8"/>
     </g>
     <g id="line2d_84">
      <g>
       <use xlink:href="#mf333750dea" x="66.008" y="178.063848" style="stroke: #000000; stroke-width: 0.6"/>
      </g>
     </g>
    </g>
    <g id="ytick_15">
     <g id="line2d_85">
      <path d="M 66.008 170.915915 
L 443.61 170.915915 
" clip-path="url(#p9b2e56262f)" style="fill: none; stroke-dasharray: 0.8,1.32; stroke-dashoffset: 0; stroke: #b0b0b0; stroke-width: 0.8"/>
     </g>
     <g id="line2d_86">
      <g>
       <use xlink:href="#mf333750dea" x="66.008" y="170.915915" style="stroke: #000000; stroke-width: 0.6"/>
      </g>
     </g>
    </g>
    <g id="ytick_16">
     <g id="line2d_87">
      <path d="M 66.008 164.872424 
L 443.61 164.872424 
" clip-path="url(#p9b2e56262f)" style="fill: none; stroke-dasharray: 0.8,1.32; stroke-dashoffset: 0; stroke: #b0b0b0; stroke-width: 0.8"/>
     </g>
     <g id="line2d_88">
      <g>
       <use xlink:href="#mf333750dea" x="66.008" y="164.872424" style="stroke: #000000; stroke-width: 0.6"/>
      </g>
     </g>
    </g>
    <g id="ytick_17">
     <g id="line2d_89">
      <path d="M 66.008 159.637313 
L 443.61 159.637313 
" clip-path="url(#p9b2e56262f)" style="fill: none; stroke-dasharray: 0.8,1.32; stroke-dashoffset: 0; stroke: #b0b0b0; stroke-width: 0.8"/>
     </g>
     <g id="line2d_90">
      <g>
       <use xlink:href="#mf333750dea" x="66.008" y="159.637313" style="stroke: #000000; stroke-width: 0.6"/>
      </g>
     </g>
    </g>
    <g id="ytick_18">
     <g id="line2d_91">
      <path d="M 66.008 155.019619 
L 443.61 155.019619 
" clip-path="url(#p9b2e56262f)" style="fill: none; stroke-dasharray: 0.8,1.32; stroke-dashoffset: 0; stroke: #b0b0b0; stroke-width: 0.8"/>
     </g>
     <g id="line2d_92">
      <g>
       <use xlink:href="#mf333750dea" x="66.008" y="155.019619" style="stroke: #000000; stroke-width: 0.6"/>
      </g>
     </g>
    </g>
    <g id="ytick_19">
     <g id="line2d_93">
      <path d="M 66.008 123.714053 
L 443.61 123.714053 
" clip-path="url(#p9b2e56262f)" style="fill: none; stroke-dasharray: 0.8,1.32; stroke-dashoffset: 0; stroke: #b0b0b0; stroke-width: 0.8"/>
     </g>
     <g id="line2d_94">
      <g>
       <use xlink:href="#mf333750dea" x="66.008" y="123.714053" style="stroke: #000000; stroke-width: 0.6"/>
      </g>
     </g>
    </g>
    <g id="ytick_20">
     <g id="line2d_95">
      <path d="M 66.008 107.817756 
L 443.61 107.817756 
" clip-path="url(#p9b2e56262f)" style="fill: none; stroke-dasharray: 0.8,1.32; stroke-dashoffset: 0; stroke: #b0b0b0; stroke-width: 0.8"/>
     </g>
     <g id="line2d_96">
      <g>
       <use xlink:href="#mf333750dea" x="66.008" y="107.817756" style="stroke: #000000; stroke-width: 0.6"/>
      </g>
     </g>
    </g>
    <g id="ytick_21">
     <g id="line2d_97">
      <path d="M 66.008 96.539155 
L 443.61 96.539155 
" clip-path="url(#p9b2e56262f)" style="fill: none; stroke-dasharray: 0.8,1.32; stroke-dashoffset: 0; stroke: #b0b0b0; stroke-width: 0.8"/>
     </g>
     <g id="line2d_98">
      <g>
       <use xlink:href="#mf333750dea" x="66.008" y="96.539155" style="stroke: #000000; stroke-width: 0.6"/>
      </g>
     </g>
    </g>
    <g id="ytick_22">
     <g id="line2d_99">
      <path d="M 66.008 87.790792 
L 443.61 87.790792 
" clip-path="url(#p9b2e56262f)" style="fill: none; stroke-dasharray: 0.8,1.32; stroke-dashoffset: 0; stroke: #b0b0b0; stroke-width: 0.8"/>
     </g>
     <g id="line2d_100">
      <g>
       <use xlink:href="#mf333750dea" x="66.008" y="87.790792" style="stroke: #000000; stroke-width: 0.6"/>
      </g>
     </g>
    </g>
    <g id="ytick_23">
     <g id="line2d_101">
      <path d="M 66.008 80.642859 
L 443.61 80.642859 
" clip-path="url(#p9b2e56262f)" style="fill: none; stroke-dasharray: 0.8,1.32; stroke-dashoffset: 0; stroke: #b0b0b0; stroke-width: 0.8"/>
     </g>
     <g id="line2d_102">
      <g>
       <use xlink:href="#mf333750dea" x="66.008" y="80.642859" style="stroke: #000000; stroke-width: 0.6"/>
      </g>
     </g>
    </g>
    <g id="ytick_24">
     <g id="line2d_103">
      <path d="M 66.008 74.599367 
L 443.61 74.599367 
" clip-path="url(#p9b2e56262f)" style="fill: none; stroke-dasharray: 0.8,1.32; stroke-dashoffset: 0; stroke: #b0b0b0; stroke-width: 0.8"/>
     </g>
     <g id="line2d_104">
      <g>
       <use xlink:href="#mf333750dea" x="66.008" y="74.599367" style="stroke: #000000; stroke-width: 0.6"/>
      </g>
     </g>
    </g>
    <g id="ytick_25">
     <g id="line2d_105">
      <path d="M 66.008 69.364257 
L 443.61 69.364257 
" clip-path="url(#p9b2e56262f)" style="fill: none; stroke-dasharray: 0.8,1.32; stroke-dashoffset: 0; stroke: #b0b0b0; stroke-width: 0.8"/>
     </g>
     <g id="line2d_106">
      <g>
       <use xlink:href="#mf333750dea" x="66.008" y="69.364257" style="stroke: #000000; stroke-width: 0.6"/>
      </g>
     </g>
    </g>
    <g id="ytick_26">
     <g id="line2d_107">
      <path d="M 66.008 64.746563 
L 443.61 64.746563 
" clip-path="url(#p9b2e56262f)" style="fill: none; stroke-dasharray: 0.8,1.32; stroke-dashoffset: 0; stroke: #b0b0b0; stroke-width: 0.8"/>
     </g>
     <g id="line2d_108">
      <g>
       <use xlink:href="#mf333750dea" x="66.008" y="64.746563" style="stroke: #000000; stroke-width: 0.6"/>
      </g>
     </g>
    </g>
    <g id="ytick_27">
     <g id="line2d_109">
      <path d="M 66.008 33.440996 
L 443.61 33.440996 
" clip-path="url(#p9b2e56262f)" style="fill: none; stroke-dasharray: 0.8,1.32; stroke-dashoffset: 0; stroke: #b0b0b0; stroke-width: 0.8"/>
     </g>
     <g id="line2d_110">
      <g>
       <use xlink:href="#mf333750dea" x="66.008" y="33.440996" style="stroke: #000000; stroke-width: 0.6"/>
      </g>
     </g>
    </g>
    <g id="ytick_28">
     <g id="line2d_111">
      <path d="M 66.008 17.5447 
L 443.61 17.5447 
" clip-path="url(#p9b2e56262f)" style="fill: none; stroke-dasharray: 0.8,1.32; stroke-dashoffset: 0; stroke: #b0b0b0; stroke-width: 0.8"/>
     </g>
     <g id="line2d_112">
      <g>
       <use xlink:href="#mf333750dea" x="66.008" y="17.5447" style="stroke: #000000; stroke-width: 0.6"/>
      </g>
     </g>
    </g>
    <g id="text_9">
     <!-- Spectral Acceleration ($cm/s^2$) -->
     <g transform="translate(26.618 258.18) rotate(-90) scale(0.14 -0.14)">
      <defs>
       <path id="DejaVuSans-53" d="M 3425 4513 
L 3425 3897 
Q 3066 4069 2747 4153 
Q 2428 4238 2131 4238 
Q 1616 4238 1336 4038 
Q 1056 3838 1056 3469 
Q 1056 3159 1242 3001 
Q 1428 2844 1947 2747 
L 2328 2669 
Q 3034 2534 3370 2195 
Q 3706 1856 3706 1288 
Q 3706 609 3251 259 
Q 2797 -91 1919 -91 
Q 1588 -91 1214 -16 
Q 841 59 441 206 
L 441 856 
Q 825 641 1194 531 
Q 1563 422 1919 422 
Q 2459 422 2753 634 
Q 3047 847 3047 1241 
Q 3047 1584 2836 1778 
Q 2625 1972 2144 2069 
L 1759 2144 
Q 1053 2284 737 2584 
Q 422 2884 422 3419 
Q 422 4038 858 4394 
Q 1294 4750 2059 4750 
Q 2388 4750 2728 4690 
Q 3069 4631 3425 4513 
z
" transform="scale(0.015625)"/>
       <path id="DejaVuSans-70" d="M 1159 525 
L 1159 -1331 
L 581 -1331 
L 581 3500 
L 1159 3500 
L 1159 2969 
Q 1341 3281 1617 3432 
Q 1894 3584 2278 3584 
Q 2916 3584 3314 3078 
Q 3713 2572 3713 1747 
Q 3713 922 3314 415 
Q 2916 -91 2278 -91 
Q 1894 -91 1617 61 
Q 1341 213 1159 525 
z
M 3116 1747 
Q 3116 2381 2855 2742 
Q 2594 3103 2138 3103 
Q 1681 3103 1420 2742 
Q 1159 2381 1159 1747 
Q 1159 1113 1420 752 
Q 1681 391 2138 391 
Q 2594 391 2855 752 
Q 3116 1113 3116 1747 
z
" transform="scale(0.015625)"/>
       <path id="DejaVuSans-63" d="M 3122 3366 
L 3122 2828 
Q 2878 2963 2633 3030 
Q 2388 3097 2138 3097 
Q 1578 3097 1268 2742 
Q 959 2388 959 1747 
Q 959 1106 1268 751 
Q 1578 397 2138 397 
Q 2388 397 2633 464 
Q 2878 531 3122 666 
L 3122 134 
Q 2881 22 2623 -34 
Q 2366 -91 2075 -91 
Q 1284 -91 818 406 
Q 353 903 353 1747 
Q 353 2603 823 3093 
Q 1294 3584 2113 3584 
Q 2378 3584 2631 3529 
Q 2884 3475 3122 3366 
z
" transform="scale(0.015625)"/>
       <path id="DejaVuSans-6c" d="M 603 4863 
L 1178 4863 
L 1178 0 
L 603 0 
L 603 4863 
z
" transform="scale(0.015625)"/>
       <path id="DejaVuSans-41" d="M 2188 4044 
L 1331 1722 
L 3047 1722 
L 2188 4044 
z
M 1831 4666 
L 2547 4666 
L 4325 0 
L 3669 0 
L 3244 1197 
L 1141 1197 
L 716 0 
L 50 0 
L 1831 4666 
z
" transform="scale(0.015625)"/>
       <path id="DejaVuSans-Oblique-63" d="M 3431 3366 
L 3316 2797 
Q 3109 2947 2876 3022 
Q 2644 3097 2394 3097 
Q 2119 3097 1870 3000 
Q 1622 2903 1453 2725 
Q 1184 2453 1037 2087 
Q 891 1722 891 1331 
Q 891 859 1127 628 
Q 1363 397 1844 397 
Q 2081 397 2348 469 
Q 2616 541 2906 684 
L 2797 116 
Q 2547 13 2283 -39 
Q 2019 -91 1741 -91 
Q 1044 -91 669 257 
Q 294 606 294 1253 
Q 294 1797 489 2255 
Q 684 2713 1069 3078 
Q 1331 3328 1684 3456 
Q 2038 3584 2456 3584 
Q 2700 3584 2940 3529 
Q 3181 3475 3431 3366 
z
" transform="scale(0.015625)"/>
       <path id="DejaVuSans-Oblique-6d" d="M 5747 2113 
L 5338 0 
L 4763 0 
L 5166 2094 
Q 5191 2228 5203 2325 
Q 5216 2422 5216 2491 
Q 5216 2772 5059 2928 
Q 4903 3084 4622 3084 
Q 4203 3084 3875 2770 
Q 3547 2456 3450 1953 
L 3066 0 
L 2491 0 
L 2900 2094 
Q 2925 2209 2937 2307 
Q 2950 2406 2950 2484 
Q 2950 2769 2794 2926 
Q 2638 3084 2363 3084 
Q 1938 3084 1609 2770 
Q 1281 2456 1184 1953 
L 800 0 
L 225 0 
L 909 3500 
L 1484 3500 
L 1375 2956 
Q 1609 3263 1923 3423 
Q 2238 3584 2597 3584 
Q 2978 3584 3223 3384 
Q 3469 3184 3519 2828 
Q 3781 3197 4126 3390 
Q 4472 3584 4856 3584 
Q 5306 3584 5551 3325 
Q 5797 3066 5797 2591 
Q 5797 2488 5784 2364 
Q 5772 2241 5747 2113 
z
" transform="scale(0.015625)"/>
       <path id="DejaVuSans-2f" d="M 1625 4666 
L 2156 4666 
L 531 -594 
L 0 -594 
L 1625 4666 
z
" transform="scale(0.015625)"/>
       <path id="DejaVuSans-Oblique-73" d="M 3200 3397 
L 3091 2853 
Q 2863 2978 2609 3040 
Q 2356 3103 2088 3103 
Q 1634 3103 1373 2948 
Q 1113 2794 1113 2528 
Q 1113 2219 1719 2053 
Q 1766 2041 1788 2034 
L 1972 1978 
Q 2547 1819 2739 1644 
Q 2931 1469 2931 1166 
Q 2931 609 2489 259 
Q 2047 -91 1331 -91 
Q 1053 -91 747 -37 
Q 441 16 72 128 
L 184 722 
Q 500 559 806 475 
Q 1113 391 1394 391 
Q 1816 391 2080 572 
Q 2344 753 2344 1031 
Q 2344 1331 1650 1516 
L 1591 1531 
L 1394 1581 
Q 956 1697 753 1886 
Q 550 2075 550 2369 
Q 550 2928 970 3256 
Q 1391 3584 2113 3584 
Q 2397 3584 2667 3537 
Q 2938 3491 3200 3397 
z
" transform="scale(0.015625)"/>
       <path id="DejaVuSans-32" d="M 1228 531 
L 3431 531 
L 3431 0 
L 469 0 
L 469 531 
Q 828 903 1448 1529 
Q 2069 2156 2228 2338 
Q 2531 2678 2651 2914 
Q 2772 3150 2772 3378 
Q 2772 3750 2511 3984 
Q 2250 4219 1831 4219 
Q 1534 4219 1204 4116 
Q 875 4013 500 3803 
L 500 4441 
Q 881 4594 1212 4672 
Q 1544 4750 1819 4750 
Q 2544 4750 2975 4387 
Q 3406 4025 3406 3419 
Q 3406 3131 3298 2873 
Q 3191 2616 2906 2266 
Q 2828 2175 2409 1742 
Q 1991 1309 1228 531 
z
" transform="scale(0.015625)"/>
      </defs>
      <use xlink:href="#DejaVuSans-53" transform="translate(0 0.765625)"/>
      <use xlink:href="#DejaVuSans-70" transform="translate(63.476562 0.765625)"/>
      <use xlink:href="#DejaVuSans-65" transform="translate(126.953125 0.765625)"/>
      <use xlink:href="#DejaVuSans-63" transform="translate(188.476562 0.765625)"/>
      <use xlink:href="#DejaVuSans-74" transform="translate(243.457031 0.765625)"/>
      <use xlink:href="#DejaVuSans-72" transform="translate(282.666016 0.765625)"/>
      <use xlink:href="#DejaVuSans-61" transform="translate(323.779297 0.765625)"/>
      <use xlink:href="#DejaVuSans-6c" transform="translate(385.058594 0.765625)"/>
      <use xlink:href="#DejaVuSans-20" transform="translate(412.841797 0.765625)"/>
      <use xlink:href="#DejaVuSans-41" transform="translate(444.628906 0.765625)"/>
      <use xlink:href="#DejaVuSans-63" transform="translate(513.037109 0.765625)"/>
      <use xlink:href="#DejaVuSans-63" transform="translate(568.017578 0.765625)"/>
      <use xlink:href="#DejaVuSans-65" transform="translate(622.998047 0.765625)"/>
      <use xlink:href="#DejaVuSans-6c" transform="translate(684.521484 0.765625)"/>
      <use xlink:href="#DejaVuSans-65" transform="translate(712.304688 0.765625)"/>
      <use xlink:href="#DejaVuSans-72" transform="translate(773.828125 0.765625)"/>
      <use xlink:href="#DejaVuSans-61" transform="translate(814.941406 0.765625)"/>
      <use xlink:href="#DejaVuSans-74" transform="translate(876.220703 0.765625)"/>
      <use xlink:href="#DejaVuSans-69" transform="translate(915.429688 0.765625)"/>
      <use xlink:href="#DejaVuSans-6f" transform="translate(943.212891 0.765625)"/>
      <use xlink:href="#DejaVuSans-6e" transform="translate(1004.394531 0.765625)"/>
      <use xlink:href="#DejaVuSans-20" transform="translate(1067.773438 0.765625)"/>
      <use xlink:href="#DejaVuSans-28" transform="translate(1099.560547 0.765625)"/>
      <use xlink:href="#DejaVuSans-Oblique-63" transform="translate(1138.574219 0.765625)"/>
      <use xlink:href="#DejaVuSans-Oblique-6d" transform="translate(1193.554688 0.765625)"/>
      <use xlink:href="#DejaVuSans-2f" transform="translate(1290.966797 0.765625)"/>
      <use xlink:href="#DejaVuSans-Oblique-73" transform="translate(1324.658203 0.765625)"/>
      <use xlink:href="#DejaVuSans-32" transform="translate(1381.407708 39.046875) scale(0.7)"/>
      <use xlink:href="#DejaVuSans-29" transform="translate(1428.678216 0.765625)"/>
     </g>
    </g>
   </g>
   <g id="line2d_113">
    <path d="M -1 72.36034 
L 172.245321 72.310838 
L 260.221246 72.310838 
L 267.655019 79.457838 
L 279.852824 88.206356 
L 289.819156 95.354134 
L 298.24557 101.397936 
L 305.544862 106.633357 
L 311.983293 111.250897 
L 317.742667 115.380477 
L 322.952654 119.118209 
L 327.708999 122.529032 
L 332.084413 125.666336 
L 336.135413 128.572834 
L 339.906804 131.278328 
L 343.434705 133.807011 
L 346.748658 136.18365 
L 349.873136 138.424395 
L 352.828639 140.546126 
L 355.632509 142.555374 
L 358.29955 144.470218 
L 360.842496 146.291397 
L 363.272385 148.036464 
L 365.598842 149.705795 
L 367.830314 151.305292 
L 369.974255 152.843255 
L 372.037273 154.32209 
L 374.025256 155.745555 
L 375.94347 157.123335 
L 377.796647 158.453225 
L 379.589053 159.738131 
L 381.324547 160.981909 
L 383.006634 162.189403 
L 384.638501 163.361191 
L 386.223061 164.498272 
L 387.762979 165.602091 
L 389.260702 166.67456 
L 390.718482 167.71807 
L 392.138393 168.735509 
L 393.522352 169.730272 
L 394.872137 170.699903 
L 396.189393 171.641851 
L 397.475652 172.566854 
L 398.732339 173.466294 
L 399.960784 174.351854 
L 401.162228 175.207786 
L 402.337832 176.053582 
L 403.488685 176.880693 
L 404.615807 177.687519 
L 405.720157 178.48019 
L 406.802638 179.257487 
L 407.864098 180.018153 
L 408.905339 180.760896 
L 409.927116 181.49279 
L 410.930144 182.212947 
L 411.915098 182.920453 
L 412.882619 183.614366 
L 413.833312 184.293724 
L 414.767754 184.966711 
L 415.686489 185.623459 
L 416.590039 186.92267 
L 417.478896 188.196629 
L 418.35353 189.451623 
L 419.21439 190.684392 
L 420.061903 191.902408 
L 420.896476 193.102997 
L 421.718499 194.283307 
L 422.528343 195.440301 
L 423.326365 196.583104 
L 424.112903 197.709405 
L 424.888285 198.829811 
L 425.652822 199.9294 
L 426.406813 201.005446 
L 427.150545 202.069269 
L 427.884294 203.119019 
L 428.608325 204.167701 
L 429.32289 205.183709 
L 430.028235 206.195208 
L 430.724595 207.201136 
L 431.412195 208.183771 
L 432.091253 209.157652 
L 432.761979 210.121478 
L 433.424575 211.073876 
L 434.079236 212.013397 
L 434.726148 212.938525 
L 435.365495 213.847669 
L 435.99745 214.75878 
L 436.622182 215.651422 
L 437.239855 216.54433 
L 437.850627 217.416051 
L 438.454649 218.286132 
L 439.05207 219.154017 
L 439.643033 219.996693 
L 440.227675 220.834973 
L 440.80613 221.66817 
L 441.378527 222.471678 
L 441.944993 223.291999 
L 442.50565 224.104952 
L 443.060614 224.884303 
L 443.61 225.679461 
L 444.15392 226.464636 
" clip-path="url(#p9b2e56262f)" style="fill: none; stroke: #ff0000; stroke-width: 1.5; stroke-linecap: square"/>
   </g>
   <g id="line2d_114">
    <path d="M -1 49.180442 
L 172.245321 49.13094 
L 260.221246 49.13094 
L 267.655019 54.46221 
L 279.852824 63.210491 
L 289.819156 70.35867 
L 298.24557 76.402079 
L 305.544862 81.636779 
L 311.983293 86.25472 
L 317.742667 90.385799 
L 322.952654 94.121786 
L 327.708999 97.533075 
L 332.084413 100.671156 
L 336.135413 103.576402 
L 339.906804 106.281684 
L 343.434705 108.812334 
L 346.748658 111.189374 
L 349.873136 113.430357 
L 352.828639 115.548752 
L 355.632509 117.560697 
L 358.29955 119.473848 
L 360.842496 121.296684 
L 363.272385 123.03983 
L 365.598842 124.707973 
L 367.830314 126.308238 
L 369.974255 127.846054 
L 372.037273 129.326653 
L 374.025256 130.75245 
L 375.94347 132.127058 
L 377.796647 133.457815 
L 379.589053 134.74096 
L 381.324547 135.985917 
L 383.006634 137.19298 
L 384.638501 138.362875 
L 386.223061 139.499663 
L 387.762979 140.605255 
L 389.260702 141.679023 
L 390.718482 142.72365 
L 392.138393 143.74235 
L 393.522352 144.735595 
L 394.872137 145.704082 
L 396.189393 146.648746 
L 397.475652 147.570768 
L 398.732339 148.471581 
L 399.960784 149.352878 
L 401.162228 150.212837 
L 402.337832 151.057305 
L 403.488685 151.884843 
L 404.615807 152.689936 
L 405.720157 153.483136 
L 406.802638 154.259171 
L 407.864098 155.020952 
L 408.905339 155.767327 
L 409.927116 156.501551 
L 410.930144 157.218136 
L 411.915098 157.925047 
L 412.882619 158.621508 
L 413.833312 159.301956 
L 414.767754 159.970172 
L 415.686489 160.630247 
L 416.590039 161.928597 
L 417.478896 163.202914 
L 418.35353 164.454759 
L 419.21439 165.691754 
L 420.061903 166.905349 
L 420.896476 168.103979 
L 421.718499 169.285036 
L 422.528343 170.445736 
L 423.326365 171.589647 
L 424.112903 172.720928 
L 424.888285 173.830548 
L 425.652822 174.929861 
L 426.406813 176.009761 
L 427.150545 177.075222 
L 427.884294 178.131904 
L 428.608325 179.170355 
L 429.32289 180.18831 
L 430.028235 181.200058 
L 430.724595 182.204398 
L 431.412195 183.191286 
L 432.091253 184.158704 
L 432.761979 185.122962 
L 433.424575 186.073774 
L 434.079236 187.009546 
L 434.726148 187.938504 
L 435.365495 188.859606 
L 435.99745 189.761383 
L 436.622182 190.663171 
L 437.239855 191.542775 
L 437.850627 192.420374 
L 438.454649 193.295374 
L 439.05207 194.143952 
L 439.643033 194.999455 
L 440.227675 195.837715 
L 440.80613 196.669554 
L 441.378527 197.481541 
L 441.944993 198.297812 
L 442.50565 199.105119 
L 443.060614 199.902538 
L 443.61 200.689108 
L 444.15392 201.463828 
" clip-path="url(#p9b2e56262f)" style="fill: none; stroke: #0000ff; stroke-width: 1.5; stroke-linecap: square"/>
   </g>
   <g id="line2d_115">
    <path d="M -1 125.867158 
L 66.008 125.867019 
L 103.897843 126.841752 
L 126.06198 125.832792 
L 153.985491 120.625651 
L 176.149628 113.463239 
L 191.875333 108.402066 
L 214.039471 101.867989 
L 229.765176 99.870664 
L 241.962981 100.863689 
L 251.929313 102.729107 
L 267.655019 107.398807 
L 279.852824 111.518374 
L 302.016961 123.303098 
L 317.742667 133.076513 
L 339.906804 147.23495 
L 355.632509 158.137981 
L 377.796647 170.39322 
L 393.522352 177.294728 
L 405.720157 183.391082 
L 427.884294 196.212089 
L 443.61 210.493755 
" clip-path="url(#p9b2e56262f)" style="fill: none; stroke: #006400; stroke-width: 1.5; stroke-linecap: square"/>
   </g>
   <g id="line2d_116">
    <path d="M -1 102.083365 
L 66.008 102.083194 
L 103.897843 102.938862 
L 126.06198 101.140058 
L 153.985491 93.905721 
L 176.149628 85.439963 
L 191.875333 80.612183 
L 214.039471 75.894417 
L 229.765176 75.512911 
L 241.962981 77.017292 
L 251.929313 78.973216 
L 267.655019 83.215272 
L 279.852824 86.446206 
L 302.016961 96.78121 
L 317.742667 105.93059 
L 339.906804 120.005442 
L 355.632509 130.689797 
L 377.796647 142.629566 
L 393.522352 149.537718 
L 405.720157 155.693608 
L 427.884294 169.195941 
L 443.61 185.027431 
" clip-path="url(#p9b2e56262f)" style="fill: none; stroke-dasharray: 5.55,2.4; stroke-dashoffset: 0; stroke: #006400; stroke-width: 1.5"/>
   </g>
   <g id="line2d_117">
    <path d="M -1 149.65095 
L 66.008 149.650845 
L 103.897843 150.744642 
L 126.06198 150.525526 
L 153.985491 147.345581 
L 176.149628 141.486516 
L 191.875333 136.191949 
L 214.039471 127.841561 
L 229.765176 124.228418 
L 241.962981 124.710086 
L 251.929313 126.484998 
L 267.655019 131.582343 
L 279.852824 136.590543 
L 302.016961 149.824987 
L 317.742667 160.222436 
L 339.906804 174.464459 
L 355.632509 185.586164 
L 377.796647 198.156874 
L 393.522352 205.051738 
L 405.720157 211.088555 
L 427.884294 223.228236 
L 443.61 235.960079 
" clip-path="url(#p9b2e56262f)" style="fill: none; stroke-dasharray: 5.55,2.4; stroke-dashoffset: 0; stroke: #006400; stroke-width: 1.5"/>
   </g>
   <g id="line2d_118">
    <path d="M -1 78.299572 
L 66.008 78.299369 
L 103.897843 79.035971 
L 126.06198 76.447324 
L 153.985491 67.185791 
L 176.149628 57.416687 
L 191.875333 52.8223 
L 214.039471 49.920845 
L 229.765176 51.155157 
L 241.962981 53.170894 
L 251.929313 55.217325 
L 267.655019 59.031737 
L 279.852824 61.374037 
L 302.016961 70.259321 
L 317.742667 78.784668 
L 339.906804 92.775933 
L 355.632509 103.241614 
L 377.796647 114.865911 
L 393.522352 121.780708 
L 405.720157 127.996134 
L 427.884294 142.179793 
L 443.61 159.561107 
" clip-path="url(#p9b2e56262f)" style="fill: none; stroke-dasharray: 1.5,2.475; stroke-dashoffset: 0; stroke: #006400; stroke-width: 1.5"/>
   </g>
   <g id="line2d_119">
    <path d="M -1 173.434743 
L 66.008 173.43467 
L 103.897843 174.647533 
L 126.06198 175.21826 
L 153.985491 174.065511 
L 176.149628 169.509792 
L 191.875333 163.981832 
L 214.039471 153.815133 
L 229.765176 148.586172 
L 241.962981 148.556484 
L 251.929313 150.240889 
L 267.655019 155.765878 
L 279.852824 161.662712 
L 302.016961 176.346875 
L 317.742667 187.368358 
L 339.906804 201.693968 
L 355.632509 213.034347 
L 377.796647 225.920528 
L 393.522352 232.808748 
L 405.720157 238.786029 
L 427.884294 250.244384 
L 443.61 261.426403 
" clip-path="url(#p9b2e56262f)" style="fill: none; stroke-dasharray: 1.5,2.475; stroke-dashoffset: 0; stroke: #006400; stroke-width: 1.5"/>
   </g>
   <g id="line2d_120">
    <path d="M -1 54.51578 
L 66.008 54.515543 
L 103.897843 55.133081 
L 126.06198 51.75459 
L 153.985491 40.465861 
L 176.149628 29.393411 
L 191.875333 25.032416 
L 214.039471 23.947273 
L 229.765176 26.797403 
L 241.962981 29.324497 
L 251.929313 31.461434 
L 267.655019 34.848202 
L 279.852824 36.301869 
L 302.016961 43.737433 
L 317.742667 51.638745 
L 339.906804 65.546424 
L 355.632509 75.793431 
L 377.796647 87.102257 
L 393.522352 94.023698 
L 405.720157 100.298661 
L 427.884294 115.163645 
L 443.61 134.094782 
" clip-path="url(#p9b2e56262f)" style="fill: none; stroke-dasharray: 1.5,7.5; stroke-dashoffset: 0; stroke: #006400; stroke-width: 1.5"/>
   </g>
   <g id="line2d_121">
    <path d="M -1 197.218536 
L 66.008 197.218496 
L 103.897843 198.550423 
L 126.06198 199.910994 
L 153.985491 200.785441 
L 176.149628 197.533068 
L 191.875333 191.771716 
L 214.039471 179.788705 
L 229.765176 172.943926 
L 241.962981 172.402881 
L 251.929313 173.996779 
L 267.655019 179.949413 
L 279.852824 186.73488 
L 302.016961 202.868764 
L 317.742667 214.514281 
L 339.906804 228.923476 
L 355.632509 240.482531 
L 377.796647 253.684183 
L 393.522352 260.565758 
L 405.720157 266.483503 
L 427.884294 277.260532 
L 443.61 286.892727 
" clip-path="url(#p9b2e56262f)" style="fill: none; stroke-dasharray: 1.5,7.5; stroke-dashoffset: 0; stroke: #006400; stroke-width: 1.5"/>
   </g>
   <g id="patch_3">
    <path d="M 66.008 300.04 
L 66.008 10.8 
" style="fill: none; stroke: #000000; stroke-width: 0.8; stroke-linejoin: miter; stroke-linecap: square"/>
   </g>
   <g id="patch_4">
    <path d="M 443.61 300.04 
L 443.61 10.8 
" style="fill: none; stroke: #000000; stroke-width: 0.8; stroke-linejoin: miter; stroke-linecap: square"/>
   </g>
   <g id="patch_5">
    <path d="M 66.008 300.04 
L 443.61 300.04 
" style="fill: none; stroke: #000000; stroke-width: 0.8; stroke-linejoin: miter; stroke-linecap: square"/>
   </g>
   <g id="patch_6">
    <path d="M 66.008 10.8 
L 443.61 10.8 
" style="fill: none; stroke: #000000; stroke-width: 0.8; stroke-linejoin: miter; stroke-linecap: square"/>
   </g>
   <g id="patch_7">
    <path d="M 287.836257 29.986391 
Q 275.874614 30.937885 263.912971 31.889378 
L 264.289622 36.624422 
Q 258.109467 34.608127 251.929313 32.591833 
Q 257.712993 29.623871 263.496673 26.65591 
L 263.873323 31.390953 
Q 275.834967 30.439459 287.79661 29.487966 
L 287.836257 29.986391 
z
" style="stroke: #000000; stroke-linecap: round"/>
   </g>
   <g id="text_10">
    <!-- $\epsilon_{T=0.3s}=2.95$ -->
    <g transform="translate(289.819156 33.440996) scale(0.14 -0.14)">
     <defs>
      <path id="DejaVuSans-Oblique-3b5" d="M 1263 1888 
Q 925 1963 778 2166 
Q 669 2309 669 2503 
Q 669 3034 1175 3344 
Q 1575 3588 2188 3588 
Q 2425 3588 2684 3550 
Q 2944 3513 3234 3438 
L 3134 2916 
Q 2847 3006 2606 3047 
Q 2359 3088 2138 3088 
Q 1766 3088 1522 2944 
Q 1228 2772 1228 2522 
Q 1228 2356 1381 2241 
Q 1563 2103 1925 2103 
L 2409 2103 
L 2319 1628 
L 1856 1628 
Q 1425 1628 1172 1469 
Q 828 1253 828 916 
Q 828 703 1013 563 
Q 1244 388 1716 388 
Q 2006 388 2284 444 
Q 2563 503 2806 619 
L 2700 84 
Q 2403 -3 2131 -47 
Q 1859 -91 1609 -91 
Q 866 -91 516 194 
Q 250 413 250 781 
Q 250 1278 600 1584 
Q 859 1813 1263 1888 
z
" transform="scale(0.015625)"/>
      <path id="DejaVuSans-Oblique-54" d="M 378 4666 
L 4325 4666 
L 4225 4134 
L 2559 4134 
L 1759 0 
L 1125 0 
L 1925 4134 
L 275 4134 
L 378 4666 
z
" transform="scale(0.015625)"/>
      <path id="DejaVuSans-3d" d="M 678 2906 
L 4684 2906 
L 4684 2381 
L 678 2381 
L 678 2906 
z
M 678 1631 
L 4684 1631 
L 4684 1100 
L 678 1100 
L 678 1631 
z
" transform="scale(0.015625)"/>
      <path id="DejaVuSans-33" d="M 2597 2516 
Q 3050 2419 3304 2112 
Q 3559 1806 3559 1356 
Q 3559 666 3084 287 
Q 2609 -91 1734 -91 
Q 1441 -91 1130 -33 
Q 819 25 488 141 
L 488 750 
Q 750 597 1062 519 
Q 1375 441 1716 441 
Q 2309 441 2620 675 
Q 2931 909 2931 1356 
Q 2931 1769 2642 2001 
Q 2353 2234 1838 2234 
L 1294 2234 
L 1294 2753 
L 1863 2753 
Q 2328 2753 2575 2939 
Q 2822 3125 2822 3475 
Q 2822 3834 2567 4026 
Q 2313 4219 1838 4219 
Q 1578 4219 1281 4162 
Q 984 4106 628 3988 
L 628 4550 
Q 988 4650 1302 4700 
Q 1616 4750 1894 4750 
Q 2613 4750 3031 4423 
Q 3450 4097 3450 3541 
Q 3450 3153 3228 2886 
Q 3006 2619 2597 2516 
z
" transform="scale(0.015625)"/>
      <path id="DejaVuSans-39" d="M 703 97 
L 703 672 
Q 941 559 1184 500 
Q 1428 441 1663 441 
Q 2288 441 2617 861 
Q 2947 1281 2994 2138 
Q 2813 1869 2534 1725 
Q 2256 1581 1919 1581 
Q 1219 1581 811 2004 
Q 403 2428 403 3163 
Q 403 3881 828 4315 
Q 1253 4750 1959 4750 
Q 2769 4750 3195 4129 
Q 3622 3509 3622 2328 
Q 3622 1225 3098 567 
Q 2575 -91 1691 -91 
Q 1453 -91 1209 -44 
Q 966 3 703 97 
z
M 1959 2075 
Q 2384 2075 2632 2365 
Q 2881 2656 2881 3163 
Q 2881 3666 2632 3958 
Q 2384 4250 1959 4250 
Q 1534 4250 1286 3958 
Q 1038 3666 1038 3163 
Q 1038 2656 1286 2365 
Q 1534 2075 1959 2075 
z
" transform="scale(0.015625)"/>
      <path id="DejaVuSans-35" d="M 691 4666 
L 3169 4666 
L 3169 4134 
L 1269 4134 
L 1269 2991 
Q 1406 3038 1543 3061 
Q 1681 3084 1819 3084 
Q 2600 3084 3056 2656 
Q 3513 2228 3513 1497 
Q 3513 744 3044 326 
Q 2575 -91 1722 -91 
Q 1428 -91 1123 -41 
Q 819 9 494 109 
L 494 744 
Q 775 591 1075 516 
Q 1375 441 1709 441 
Q 2250 441 2565 725 
Q 2881 1009 2881 1497 
Q 2881 1984 2565 2268 
Q 2250 2553 1709 2553 
Q 1456 2553 1204 2497 
Q 953 2441 691 2322 
L 691 4666 
z
" transform="scale(0.015625)"/>
     </defs>
     <use xlink:href="#DejaVuSans-Oblique-3b5" transform="translate(0 0.78125)"/>
     <use xlink:href="#DejaVuSans-Oblique-54" transform="translate(54.052734 -15.625) scale(0.7)"/>
     <use xlink:href="#DejaVuSans-3d" transform="translate(110.449219 -15.625) scale(0.7)"/>
     <use xlink:href="#DejaVuSans-30" transform="translate(182.739258 -15.625) scale(0.7)"/>
     <use xlink:href="#DejaVuSans-2e" transform="translate(227.275391 -15.625) scale(0.7)"/>
     <use xlink:href="#DejaVuSans-33" transform="translate(249.526367 -15.625) scale(0.7)"/>
     <use xlink:href="#DejaVuSans-Oblique-73" transform="translate(294.0625 -15.625) scale(0.7)"/>
     <use xlink:href="#DejaVuSans-3d" transform="translate(352.749023 0.78125)"/>
     <use xlink:href="#DejaVuSans-32" transform="translate(456.020508 0.78125)"/>
     <use xlink:href="#DejaVuSans-2e" transform="translate(519.643555 0.78125)"/>
     <use xlink:href="#DejaVuSans-39" transform="translate(551.430664 0.78125)"/>
     <use xlink:href="#DejaVuSans-35" transform="translate(615.053711 0.78125)"/>
    </g>
   </g>
   <g id="patch_8">
    <path d="M 386.913626 92.754507 
Q 383.704309 108.121854 380.494993 123.489202 
L 385.144679 124.460242 
Q 381.470663 129.823584 377.796647 135.186926 
Q 376.576256 128.801436 375.355866 122.415947 
L 380.005552 123.386987 
Q 383.214869 108.01964 386.424185 92.652292 
L 386.913626 92.754507 
z
" style="stroke: #000000; stroke-linecap: round"/>
   </g>
   <g id="text_11">
    <!-- $\epsilon_{T=3.0s}=1.27$ -->
    <g transform="translate(339.906804 87.790792) scale(0.14 -0.14)">
     <defs>
      <path id="DejaVuSans-37" d="M 525 4666 
L 3525 4666 
L 3525 4397 
L 1831 0 
L 1172 0 
L 2766 4134 
L 525 4134 
L 525 4666 
z
" transform="scale(0.015625)"/>
     </defs>
     <use xlink:href="#DejaVuSans-Oblique-3b5" transform="translate(0 0.78125)"/>
     <use xlink:href="#DejaVuSans-Oblique-54" transform="translate(54.052734 -15.625) scale(0.7)"/>
     <use xlink:href="#DejaVuSans-3d" transform="translate(110.449219 -15.625) scale(0.7)"/>
     <use xlink:href="#DejaVuSans-33" transform="translate(182.739258 -15.625) scale(0.7)"/>
     <use xlink:href="#DejaVuSans-2e" transform="translate(227.275391 -15.625) scale(0.7)"/>
     <use xlink:href="#DejaVuSans-30" transform="translate(249.526367 -15.625) scale(0.7)"/>
     <use xlink:href="#DejaVuSans-Oblique-73" transform="translate(294.0625 -15.625) scale(0.7)"/>
     <use xlink:href="#DejaVuSans-3d" transform="translate(352.749023 0.78125)"/>
     <use xlink:href="#DejaVuSans-31" transform="translate(456.020508 0.78125)"/>
     <use xlink:href="#DejaVuSans-2e" transform="translate(519.643555 0.78125)"/>
     <use xlink:href="#DejaVuSans-32" transform="translate(545.930664 0.78125)"/>
     <use xlink:href="#DejaVuSans-37" transform="translate(609.553711 0.78125)"/>
    </g>
   </g>
   <g id="legend_1">
    <g id="patch_9">
     <path d="M 73.008 295.04 
L 322.493938 295.04 
Q 324.493938 295.04 324.493938 293.04 
L 324.493938 235.3275 
Q 324.493938 233.3275 322.493938 233.3275 
L 73.008 233.3275 
Q 71.008 233.3275 71.008 235.3275 
L 71.008 293.04 
Q 71.008 295.04 73.008 295.04 
z
" style="fill: #ffffff; opacity: 0.8; stroke: #cccccc; stroke-linejoin: miter"/>
    </g>
    <g id="line2d_122">
     <path d="M 75.008 241.425937 
L 85.008 241.425937 
L 95.008 241.425937 
" style="fill: none; stroke: #000000; stroke-width: 3; stroke-linecap: square"/>
    </g>
    <g id="text_12">
     <!-- Observed -->
     <g transform="translate(103.008 244.925937) scale(0.1 -0.1)">
      <defs>
       <path id="DejaVuSans-4f" d="M 2522 4238 
Q 1834 4238 1429 3725 
Q 1025 3213 1025 2328 
Q 1025 1447 1429 934 
Q 1834 422 2522 422 
Q 3209 422 3611 934 
Q 4013 1447 4013 2328 
Q 4013 3213 3611 3725 
Q 3209 4238 2522 4238 
z
M 2522 4750 
Q 3503 4750 4090 4092 
Q 4678 3434 4678 2328 
Q 4678 1225 4090 567 
Q 3503 -91 2522 -91 
Q 1538 -91 948 565 
Q 359 1222 359 2328 
Q 359 3434 948 4092 
Q 1538 4750 2522 4750 
z
" transform="scale(0.015625)"/>
       <path id="DejaVuSans-76" d="M 191 3500 
L 800 3500 
L 1894 563 
L 2988 3500 
L 3597 3500 
L 2284 0 
L 1503 0 
L 191 3500 
z
" transform="scale(0.015625)"/>
      </defs>
      <use xlink:href="#DejaVuSans-4f"/>
      <use xlink:href="#DejaVuSans-62" x="78.710938"/>
      <use xlink:href="#DejaVuSans-73" x="142.1875"/>
      <use xlink:href="#DejaVuSans-65" x="194.287109"/>
      <use xlink:href="#DejaVuSans-72" x="255.810547"/>
      <use xlink:href="#DejaVuSans-76" x="296.923828"/>
      <use xlink:href="#DejaVuSans-65" x="356.103516"/>
      <use xlink:href="#DejaVuSans-64" x="417.626953"/>
     </g>
    </g>
    <g id="line2d_123">
     <path d="M 75.008 256.104062 
L 85.008 256.104062 
L 95.008 256.104062 
" style="fill: none; stroke: #ff0000; stroke-width: 1.5; stroke-linecap: square"/>
    </g>
    <g id="text_13">
     <!-- TBEC (2475) -->
     <g transform="translate(103.008 259.604062) scale(0.1 -0.1)">
      <defs>
       <path id="DejaVuSans-54" d="M -19 4666 
L 3928 4666 
L 3928 4134 
L 2272 4134 
L 2272 0 
L 1638 0 
L 1638 4134 
L -19 4134 
L -19 4666 
z
" transform="scale(0.015625)"/>
       <path id="DejaVuSans-42" d="M 1259 2228 
L 1259 519 
L 2272 519 
Q 2781 519 3026 730 
Q 3272 941 3272 1375 
Q 3272 1813 3026 2020 
Q 2781 2228 2272 2228 
L 1259 2228 
z
M 1259 4147 
L 1259 2741 
L 2194 2741 
Q 2656 2741 2882 2914 
Q 3109 3088 3109 3444 
Q 3109 3797 2882 3972 
Q 2656 4147 2194 4147 
L 1259 4147 
z
M 628 4666 
L 2241 4666 
Q 2963 4666 3353 4366 
Q 3744 4066 3744 3513 
Q 3744 3084 3544 2831 
Q 3344 2578 2956 2516 
Q 3422 2416 3680 2098 
Q 3938 1781 3938 1306 
Q 3938 681 3513 340 
Q 3088 0 2303 0 
L 628 0 
L 628 4666 
z
" transform="scale(0.015625)"/>
       <path id="DejaVuSans-45" d="M 628 4666 
L 3578 4666 
L 3578 4134 
L 1259 4134 
L 1259 2753 
L 3481 2753 
L 3481 2222 
L 1259 2222 
L 1259 531 
L 3634 531 
L 3634 0 
L 628 0 
L 628 4666 
z
" transform="scale(0.015625)"/>
       <path id="DejaVuSans-43" d="M 4122 4306 
L 4122 3641 
Q 3803 3938 3442 4084 
Q 3081 4231 2675 4231 
Q 1875 4231 1450 3742 
Q 1025 3253 1025 2328 
Q 1025 1406 1450 917 
Q 1875 428 2675 428 
Q 3081 428 3442 575 
Q 3803 722 4122 1019 
L 4122 359 
Q 3791 134 3420 21 
Q 3050 -91 2638 -91 
Q 1578 -91 968 557 
Q 359 1206 359 2328 
Q 359 3453 968 4101 
Q 1578 4750 2638 4750 
Q 3056 4750 3426 4639 
Q 3797 4528 4122 4306 
z
" transform="scale(0.015625)"/>
       <path id="DejaVuSans-34" d="M 2419 4116 
L 825 1625 
L 2419 1625 
L 2419 4116 
z
M 2253 4666 
L 3047 4666 
L 3047 1625 
L 3713 1625 
L 3713 1100 
L 3047 1100 
L 3047 0 
L 2419 0 
L 2419 1100 
L 313 1100 
L 313 1709 
L 2253 4666 
z
" transform="scale(0.015625)"/>
      </defs>
      <use xlink:href="#DejaVuSans-54"/>
      <use xlink:href="#DejaVuSans-42" x="61.083984"/>
      <use xlink:href="#DejaVuSans-45" x="129.6875"/>
      <use xlink:href="#DejaVuSans-43" x="192.871094"/>
      <use xlink:href="#DejaVuSans-20" x="262.695312"/>
      <use xlink:href="#DejaVuSans-28" x="294.482422"/>
      <use xlink:href="#DejaVuSans-32" x="333.496094"/>
      <use xlink:href="#DejaVuSans-34" x="397.119141"/>
      <use xlink:href="#DejaVuSans-37" x="460.742188"/>
      <use xlink:href="#DejaVuSans-35" x="524.365234"/>
      <use xlink:href="#DejaVuSans-29" x="587.988281"/>
     </g>
    </g>
    <g id="line2d_124">
     <path d="M 75.008 270.782187 
L 85.008 270.782187 
L 95.008 270.782187 
" style="fill: none; stroke: #0000ff; stroke-width: 1.5; stroke-linecap: square"/>
    </g>
    <g id="text_14">
     <!-- TBEC (475) -->
     <g transform="translate(103.008 274.282187) scale(0.1 -0.1)">
      <use xlink:href="#DejaVuSans-54"/>
      <use xlink:href="#DejaVuSans-42" x="61.083984"/>
      <use xlink:href="#DejaVuSans-45" x="129.6875"/>
      <use xlink:href="#DejaVuSans-43" x="192.871094"/>
      <use xlink:href="#DejaVuSans-20" x="262.695312"/>
      <use xlink:href="#DejaVuSans-28" x="294.482422"/>
      <use xlink:href="#DejaVuSans-34" x="333.496094"/>
      <use xlink:href="#DejaVuSans-37" x="397.119141"/>
      <use xlink:href="#DejaVuSans-35" x="460.742188"/>
      <use xlink:href="#DejaVuSans-29" x="524.365234"/>
     </g>
    </g>
    <g id="line2d_125">
     <path d="M 75.008 285.460312 
L 85.008 285.460312 
L 95.008 285.460312 
" style="fill: none; stroke: #006400; stroke-width: 1.5; stroke-linecap: square"/>
    </g>
    <g id="text_15">
     <!-- BSSA14(Mean) -->
     <g transform="translate(103.008 288.960312) scale(0.1 -0.1)">
      <defs>
       <path id="DejaVuSans-4d" d="M 628 4666 
L 1569 4666 
L 2759 1491 
L 3956 4666 
L 4897 4666 
L 4897 0 
L 4281 0 
L 4281 4097 
L 3078 897 
L 2444 897 
L 1241 4097 
L 1241 0 
L 628 0 
L 628 4666 
z
" transform="scale(0.015625)"/>
      </defs>
      <use xlink:href="#DejaVuSans-42"/>
      <use xlink:href="#DejaVuSans-53" x="66.853516"/>
      <use xlink:href="#DejaVuSans-53" x="130.330078"/>
      <use xlink:href="#DejaVuSans-41" x="195.681641"/>
      <use xlink:href="#DejaVuSans-31" x="264.089844"/>
      <use xlink:href="#DejaVuSans-34" x="327.712891"/>
      <use xlink:href="#DejaVuSans-28" x="391.335938"/>
      <use xlink:href="#DejaVuSans-4d" x="430.349609"/>
      <use xlink:href="#DejaVuSans-65" x="516.628906"/>
      <use xlink:href="#DejaVuSans-61" x="578.152344"/>
      <use xlink:href="#DejaVuSans-6e" x="639.431641"/>
      <use xlink:href="#DejaVuSans-29" x="702.810547"/>
     </g>
    </g>
    <g id="line2d_126">
     <path d="M 197.193938 241.425937 
L 207.193938 241.425937 
L 217.193938 241.425937 
" style="fill: none; stroke-dasharray: 5.55,2.4; stroke-dashoffset: 0; stroke: #006400; stroke-width: 1.5"/>
    </g>
    <g id="text_16">
     <!-- BSSA14(Mean$\pm\sigma$) -->
     <g transform="translate(225.193938 244.925937) scale(0.1 -0.1)">
      <defs>
       <path id="DejaVuSans-b1" d="M 2944 4013 
L 2944 2803 
L 4684 2803 
L 4684 2272 
L 2944 2272 
L 2944 1063 
L 2419 1063 
L 2419 2272 
L 678 2272 
L 678 2803 
L 2419 2803 
L 2419 4013 
L 2944 4013 
z
M 678 531 
L 4684 531 
L 4684 0 
L 678 0 
L 678 531 
z
" transform="scale(0.015625)"/>
       <path id="DejaVuSans-Oblique-3c3" d="M 2219 3044 
Q 1744 3044 1422 2700 
Q 1081 2341 969 1747 
Q 844 1119 1044 756 
Q 1241 397 1706 397 
Q 2166 397 2503 759 
Q 2844 1122 2966 1747 
Q 3075 2319 2881 2700 
Q 2700 3044 2219 3044 
z
M 2309 3503 
L 4219 3500 
L 4106 2925 
L 3463 2925 
Q 3706 2438 3575 1747 
Q 3406 888 2884 400 
Q 2359 -91 1609 -91 
Q 856 -91 525 400 
Q 194 888 363 1747 
Q 528 2609 1050 3097 
Q 1484 3503 2309 3503 
z
" transform="scale(0.015625)"/>
      </defs>
      <use xlink:href="#DejaVuSans-42" transform="translate(0 0.125)"/>
      <use xlink:href="#DejaVuSans-53" transform="translate(68.603516 0.125)"/>
      <use xlink:href="#DejaVuSans-53" transform="translate(132.080078 0.125)"/>
      <use xlink:href="#DejaVuSans-41" transform="translate(195.556641 0.125)"/>
      <use xlink:href="#DejaVuSans-31" transform="translate(263.964844 0.125)"/>
      <use xlink:href="#DejaVuSans-34" transform="translate(327.587891 0.125)"/>
      <use xlink:href="#DejaVuSans-28" transform="translate(391.210938 0.125)"/>
      <use xlink:href="#DejaVuSans-4d" transform="translate(430.224609 0.125)"/>
      <use xlink:href="#DejaVuSans-65" transform="translate(516.503906 0.125)"/>
      <use xlink:href="#DejaVuSans-61" transform="translate(578.027344 0.125)"/>
      <use xlink:href="#DejaVuSans-6e" transform="translate(639.306641 0.125)"/>
      <use xlink:href="#DejaVuSans-b1" transform="translate(702.685547 0.125)"/>
      <use xlink:href="#DejaVuSans-Oblique-3c3" transform="translate(786.474609 0.125)"/>
      <use xlink:href="#DejaVuSans-29" transform="translate(849.853516 0.125)"/>
     </g>
    </g>
    <g id="line2d_127">
     <path d="M 197.193938 256.104062 
L 207.193938 256.104062 
L 217.193938 256.104062 
" style="fill: none; stroke-dasharray: 1.5,2.475; stroke-dashoffset: 0; stroke: #006400; stroke-width: 1.5"/>
    </g>
    <g id="text_17">
     <!-- BSSA14(Mean$\pm2\sigma$) -->
     <g transform="translate(225.193938 259.604062) scale(0.1 -0.1)">
      <use xlink:href="#DejaVuSans-42" transform="translate(0 0.125)"/>
      <use xlink:href="#DejaVuSans-53" transform="translate(68.603516 0.125)"/>
      <use xlink:href="#DejaVuSans-53" transform="translate(132.080078 0.125)"/>
      <use xlink:href="#DejaVuSans-41" transform="translate(195.556641 0.125)"/>
      <use xlink:href="#DejaVuSans-31" transform="translate(263.964844 0.125)"/>
      <use xlink:href="#DejaVuSans-34" transform="translate(327.587891 0.125)"/>
      <use xlink:href="#DejaVuSans-28" transform="translate(391.210938 0.125)"/>
      <use xlink:href="#DejaVuSans-4d" transform="translate(430.224609 0.125)"/>
      <use xlink:href="#DejaVuSans-65" transform="translate(516.503906 0.125)"/>
      <use xlink:href="#DejaVuSans-61" transform="translate(578.027344 0.125)"/>
      <use xlink:href="#DejaVuSans-6e" transform="translate(639.306641 0.125)"/>
      <use xlink:href="#DejaVuSans-b1" transform="translate(702.685547 0.125)"/>
      <use xlink:href="#DejaVuSans-32" transform="translate(786.474609 0.125)"/>
      <use xlink:href="#DejaVuSans-Oblique-3c3" transform="translate(850.097656 0.125)"/>
      <use xlink:href="#DejaVuSans-29" transform="translate(913.476562 0.125)"/>
     </g>
    </g>
    <g id="line2d_128">
     <path d="M 197.193938 270.782187 
L 207.193938 270.782187 
L 217.193938 270.782187 
" style="fill: none; stroke-dasharray: 1.5,7.5; stroke-dashoffset: 0; stroke: #006400; stroke-width: 1.5"/>
    </g>
    <g id="text_18">
     <!-- BSSA14(Mean$\pm3\sigma$) -->
     <g transform="translate(225.193938 274.282187) scale(0.1 -0.1)">
      <use xlink:href="#DejaVuSans-42" transform="translate(0 0.125)"/>
      <use xlink:href="#DejaVuSans-53" transform="translate(68.603516 0.125)"/>
      <use xlink:href="#DejaVuSans-53" transform="translate(132.080078 0.125)"/>
      <use xlink:href="#DejaVuSans-41" transform="translate(195.556641 0.125)"/>
      <use xlink:href="#DejaVuSans-31" transform="translate(263.964844 0.125)"/>
      <use xlink:href="#DejaVuSans-34" transform="translate(327.587891 0.125)"/>
      <use xlink:href="#DejaVuSans-28" transform="translate(391.210938 0.125)"/>
      <use xlink:href="#DejaVuSans-4d" transform="translate(430.224609 0.125)"/>
      <use xlink:href="#DejaVuSans-65" transform="translate(516.503906 0.125)"/>
      <use xlink:href="#DejaVuSans-61" transform="translate(578.027344 0.125)"/>
      <use xlink:href="#DejaVuSans-6e" transform="translate(639.306641 0.125)"/>
      <use xlink:href="#DejaVuSans-b1" transform="translate(702.685547 0.125)"/>
      <use xlink:href="#DejaVuSans-33" transform="translate(786.474609 0.125)"/>
      <use xlink:href="#DejaVuSans-Oblique-3c3" transform="translate(850.097656 0.125)"/>
      <use xlink:href="#DejaVuSans-29" transform="translate(913.476562 0.125)"/>
     </g>
    </g>
   </g>
   <g id="line2d_129">
    <path d="M -1 59.329139 
L 66.008 59.328596 
L 103.897843 57.61342 
L 126.06198 56.673795 
L 153.985491 49.923764 
L 176.149628 44.909171 
L 191.875333 38.454476 
L 214.039471 41.04636 
L 229.765176 38.359625 
L 241.962981 32.971816 
L 251.929313 32.591833 
L 267.655019 36.040182 
L 279.852824 53.202465 
L 302.016961 56.749386 
L 317.742667 84.806583 
L 339.906804 120.77614 
L 355.632509 119.41111 
L 377.796647 135.186926 
L 393.522352 151.517701 
L 405.720157 159.067377 
L 427.884294 179.806812 
L 443.61 192.456697 
" clip-path="url(#p9b2e56262f)" style="fill: none; stroke: #000000; stroke-width: 3; stroke-linecap: square"/>
   </g>
  </g>
 </g>
 <defs>
  <clipPath id="p9b2e56262f">
   <rect x="66.008" y="10.8" width="377.602" height="289.24"/>
  </clipPath>
 </defs>
</svg>
